<svg width="26" height="24" fill="none" xmlns="http://www.w3.org/2000/svg"><path d="M19.769 18.111h-10l-.619-2.487h13.07l2.802-11.28H6.347L5.362.379H.105v1.477h4.111L8.27 18.17a2.634 2.634 0 00-2.067 2.575A2.629 2.629 0 008.82 23.38a2.629 2.629 0 002.617-2.634 2.63 2.63 0 00-.266-1.157h6.247a2.64 2.64 0 00-.267 1.157 2.629 2.629 0 002.618 2.634 2.629 2.629 0 002.617-2.634 2.629 2.629 0 00-2.617-2.634zM6.714 5.822h16.428l-2.068 8.326H8.784L6.713 5.82zM8.82 21.901c-.634 0-1.15-.519-1.15-1.157s.516-1.157 1.15-1.157c.634 0 1.15.52 1.15 1.157 0 .638-.516 1.157-1.15 1.157zm10.949 0c-.634 0-1.15-.519-1.15-1.157s.516-1.157 1.15-1.157c.634 0 1.15.52 1.15 1.157 0 .638-.516 1.157-1.15 1.157z" fill="#000"/></svg>