<svg width="24" height="22" fill="none" xmlns="http://www.w3.org/2000/svg"><path d="M11.738 21.379l-.44-.298a46.359 46.359 0 01-5.394-4.4C2.223 13.163.355 10.023.355 7.346c0-2.217.683-4.038 1.976-5.266C3.5.967 5.117.379 7.002.379c1.061 0 2.115.356 3.133 1.06.566.39 1.107.88 1.596 1.445a8.598 8.598 0 011.595-1.446C14.344.735 15.398.378 16.46.378c3.665 0 6.646 3.127 6.646 6.969 0 2.564-1.866 5.67-5.545 9.229a49.915 49.915 0 01-5.386 4.497l-.436.306zM7.002 2.049c-1.482 0-2.728.439-3.6 1.27-.965.915-1.453 2.27-1.453 4.028 0 2.157 1.739 4.957 5.029 8.098a46.23 46.23 0 004.745 3.922 50 50 0 004.77-4.033c3.284-3.179 5.02-5.94 5.02-7.987-.001-2.921-2.268-5.297-5.054-5.297-2.083 0-3.653 2.026-4.085 2.647l-.644.928-.644-.928c-.431-.62-2-2.647-4.084-2.647z" fill="#000"/></svg>