<svg width="23" height="20" fill="none" xmlns="http://www.w3.org/2000/svg"><path d="M11.365 19.878l-.44-.282A45.959 45.959 0 015.54 15.43C1.864 12.102 0 9.13 0 6.596 0 4.497.682 2.773 1.972 1.61 3.142.557 4.754 0 6.636 0c1.06 0 2.112.337 3.129 1.003a8.45 8.45 0 011.593 1.369c.488-.535 1.028-1 1.593-1.37C13.967.338 15.019 0 16.078 0c3.66 0 6.637 2.959 6.637 6.596 0 2.427-1.863 5.366-5.537 8.736a49.365 49.365 0 01-5.378 4.256l-.435.29zM6.636 1.58c-1.48 0-2.723.415-3.595 1.201-.962.867-1.45 2.15-1.45 3.814 0 2.041 1.736 4.692 5.021 7.665a45.758 45.758 0 004.738 3.713 49.388 49.388 0 004.763-3.818c3.279-3.01 5.012-5.623 5.012-7.56 0-2.765-2.264-5.015-5.047-5.015-2.08 0-3.647 1.919-4.077 2.507l-.644.877-.643-.877C10.284 3.5 8.716 1.58 6.636 1.58z" fill="#fff"/></svg>