<svg width="170" height="52" fill="none" xmlns="http://www.w3.org/2000/svg"><g filter="url(#filter0_d_1770_40097)"><path d="M45.43 20.921h-1.68v-.086H25v8.333h11.774c-1.717 4.851-6.333 8.333-11.774 8.333-6.903 0-12.5-5.597-12.5-12.5s5.597-12.5 12.5-12.5a12.43 12.43 0 018.293 3.166l5.893-5.893C35.466 6.307 30.489 4.168 25 4.168c-11.505 0-20.833 9.328-20.833 20.833 0 11.506 9.328 20.834 20.833 20.834 11.506 0 20.834-9.328 20.834-20.834 0-1.397-.144-2.76-.406-4.08z" fill="#FFC107"/><path d="M6.57 15.304l6.845 5.02c1.852-4.585 6.338-7.823 11.587-7.823a12.43 12.43 0 018.292 3.166l5.893-5.893c-3.72-3.467-8.698-5.606-14.185-5.606C17 4.168 10.06 8.686 6.57 15.304z" fill="#FF3D00"/><path d="M25 45.833c5.381 0 10.27-2.06 13.968-5.408l-6.448-5.456a12.406 12.406 0 01-7.52 2.53c-5.419 0-10.02-3.455-11.753-8.276l-6.794 5.234C9.901 41.204 16.903 45.833 25 45.833z" fill="#4CAF50"/><path d="M45.428 20.919H43.75v-.087H25v8.333h11.774a12.543 12.543 0 01-4.257 5.803l.003-.002 6.448 5.457c-.457.414 6.865-5.008 6.865-15.424 0-1.397-.143-2.76-.405-4.08z" fill="#1976D2"/></g><path d="M62.672 13.668h1.776v3.408a5.074 5.074 0 01-1.584.792 6.15 6.15 0 01-1.812.276c-.872 0-1.656-.184-2.352-.552a4.255 4.255 0 01-1.644-1.548c-.392-.664-.588-1.412-.588-2.244 0-.832.196-1.576.588-2.232a4.12 4.12 0 011.656-1.548c.704-.376 1.496-.564 2.376-.564.736 0 1.404.124 2.004.372a3.97 3.97 0 011.512 1.08l-1.248 1.152c-.6-.632-1.324-.948-2.172-.948-.536 0-1.012.112-1.428.336a2.41 2.41 0 00-.972.948c-.232.408-.348.876-.348 1.404 0 .52.116.984.348 1.392.232.408.552.728.96.96.416.224.888.336 1.416.336.56 0 1.064-.12 1.512-.36v-2.46zm7.122 4.428c-.68 0-1.292-.14-1.836-.42a3.22 3.22 0 01-1.26-1.188 3.257 3.257 0 01-.456-1.716c0-.64.152-1.212.456-1.716a3.135 3.135 0 011.26-1.176c.544-.288 1.156-.432 1.836-.432.68 0 1.288.144 1.824.432.536.28.956.672 1.26 1.176.304.504.456 1.076.456 1.716 0 .64-.152 1.212-.456 1.716a3.22 3.22 0 01-1.26 1.188c-.536.28-1.144.42-1.824.42zm0-1.536c.48 0 .872-.16 1.176-.48.312-.328.468-.764.468-1.308s-.156-.976-.468-1.296c-.304-.328-.696-.492-1.176-.492s-.876.164-1.188.492c-.312.32-.468.752-.468 1.296s.156.98.468 1.308c.312.32.708.48 1.188.48zm8.463 1.536c-.68 0-1.292-.14-1.836-.42a3.22 3.22 0 01-1.26-1.188 3.257 3.257 0 01-.456-1.716c0-.64.152-1.212.456-1.716a3.135 3.135 0 011.26-1.176c.544-.288 1.156-.432 1.836-.432.68 0 1.288.144 1.824.432.536.28.956.672 1.26 1.176.304.504.456 1.076.456 1.716 0 .64-.152 1.212-.456 1.716a3.22 3.22 0 01-1.26 1.188c-.536.28-1.144.42-1.824.42zm0-1.536c.48 0 .872-.16 1.176-.48.312-.328.468-.764.468-1.308s-.156-.976-.468-1.296c-.304-.328-.696-.492-1.176-.492s-.876.164-1.188.492c-.312.32-.468.752-.468 1.296s.156.98.468 1.308c.312.32.708.48 1.188.48zm12.051-5.016v5.376c0 1.184-.308 2.064-.924 2.64-.616.576-1.516.864-2.7.864a6.753 6.753 0 01-1.776-.228c-.56-.152-1.024-.372-1.392-.66l.744-1.344c.272.224.616.4 1.032.528.416.136.832.204 1.248.204.648 0 1.124-.148 1.428-.444.312-.288.468-.728.468-1.32v-.276c-.488.536-1.168.804-2.04.804a3.505 3.505 0 01-1.632-.384A3.027 3.027 0 0183.6 16.2c-.288-.472-.432-1.016-.432-1.632 0-.616.144-1.16.432-1.632a2.94 2.94 0 011.164-1.092 3.419 3.419 0 011.632-.396c.936 0 1.648.308 2.136.924v-.828h1.776zm-3.54 4.608c.496 0 .9-.144 1.212-.432.32-.296.48-.68.48-1.152 0-.472-.16-.852-.48-1.14-.312-.296-.716-.444-1.212-.444s-.904.148-1.224.444c-.32.288-.48.668-.48 1.14 0 .472.16.856.48 1.152.32.288.728.432 1.224.432zm5.883-7.056h1.872V18H92.65V9.096zm10.533 5.7c0 .024-.012.192-.036.504h-4.884c.088.4.296.716.624.948.328.232.736.348 1.224.348.336 0 .632-.048.888-.144a2.23 2.23 0 00.732-.48l.996 1.08c-.608.696-1.496 1.044-2.664 1.044-.728 0-1.372-.14-1.932-.42a3.163 3.163 0 01-1.296-1.188 3.257 3.257 0 01-.456-1.716c0-.632.148-1.2.444-1.704a3.15 3.15 0 011.236-1.188 3.623 3.623 0 011.764-.432 3.6 3.6 0 011.716.408c.512.272.912.664 1.2 1.176.296.504.444 1.092.444 1.764zm-3.348-1.932c-.424 0-.78.12-1.068.36-.288.24-.464.568-.528.984h3.18c-.064-.408-.24-.732-.528-.972-.288-.248-.64-.372-1.056-.372zm12.265 5.232c-.68 0-1.292-.14-1.836-.42a3.22 3.22 0 01-1.26-1.188 3.257 3.257 0 01-.456-1.716c0-.64.152-1.212.456-1.716a3.135 3.135 0 011.26-1.176c.544-.288 1.156-.432 1.836-.432.68 0 1.288.144 1.824.432.536.28.956.672 1.26 1.176.304.504.456 1.076.456 1.716 0 .64-.152 1.212-.456 1.716a3.22 3.22 0 01-1.26 1.188c-.536.28-1.144.42-1.824.42zm0-1.536c.48 0 .872-.16 1.176-.48.312-.328.468-.764.468-1.308s-.156-.976-.468-1.296c-.304-.328-.696-.492-1.176-.492s-.876.164-1.188.492c-.312.32-.468.752-.468 1.296s.156.98.468 1.308c.312.32.708.48 1.188.48zm13.659-5.112c.808 0 1.448.24 1.92.72.48.472.72 1.184.72 2.136V18h-1.872v-3.408c0-.512-.108-.892-.324-1.14-.208-.256-.508-.384-.9-.384-.44 0-.788.144-1.044.432-.256.28-.384.7-.384 1.26V18h-1.872v-3.408c0-1.016-.408-1.524-1.224-1.524-.432 0-.776.144-1.032.432-.256.28-.384.7-.384 1.26V18h-1.872v-6.456h1.788v.744c.24-.272.532-.48.876-.624a3.014 3.014 0 011.152-.216c.456 0 .868.092 1.236.276.368.176.664.436.888.78a2.66 2.66 0 01.996-.78 3.202 3.202 0 011.332-.276zm11.564-2.352V18h-1.788v-.744c-.464.56-1.136.84-2.016.84-.608 0-1.16-.136-1.656-.408a2.932 2.932 0 01-1.152-1.164c-.28-.504-.42-1.088-.42-1.752 0-.664.14-1.248.42-1.752.28-.504.664-.892 1.152-1.164a3.387 3.387 0 011.656-.408c.824 0 1.468.26 1.932.78V9.096h1.872zm-3.48 7.464c.472 0 .864-.16 1.176-.48.312-.328.468-.764.468-1.308s-.156-.976-.468-1.296a1.555 1.555 0 00-1.176-.492c-.48 0-.876.164-1.188.492-.312.32-.468.752-.468 1.296s.156.98.468 1.308c.312.32.708.48 1.188.48zm8.885 1.536c-.68 0-1.292-.14-1.836-.42a3.22 3.22 0 01-1.26-1.188 3.257 3.257 0 01-.456-1.716c0-.64.152-1.212.456-1.716a3.135 3.135 0 011.26-1.176c.544-.288 1.156-.432 1.836-.432.68 0 1.288.144 1.824.432.536.28.956.672 1.26 1.176.304.504.456 1.076.456 1.716 0 .64-.152 1.212-.456 1.716a3.22 3.22 0 01-1.26 1.188c-.536.28-1.144.42-1.824.42zm0-1.536c.48 0 .872-.16 1.176-.48.312-.328.468-.764.468-1.308s-.156-.976-.468-1.296c-.304-.328-.696-.492-1.176-.492s-.876.164-1.188.492c-.312.32-.468.752-.468 1.296s.156.98.468 1.308c.312.32.708.48 1.188.48zm-1.236-5.904a.837.837 0 01-.6-.228.814.814 0 01-.24-.6c0-.24.08-.436.24-.588.16-.16.36-.24.6-.24s.436.08.588.24c.16.152.24.348.24.588s-.08.44-.24.6a.796.796 0 01-.588.228zm2.424 0a.837.837 0 01-.6-.228.837.837 0 01-.228-.6c0-.24.076-.436.228-.588.16-.16.36-.24.6-.24s.44.08.6.24c.16.152.24.348.24.588s-.08.44-.24.6a.837.837 0 01-.6.228zm12.471.792c.808 0 1.448.24 1.92.72.48.472.72 1.184.72 2.136V18h-1.872v-3.408c0-.512-.108-.892-.324-1.14-.208-.256-.508-.384-.9-.384-.44 0-.788.144-1.044.432-.256.28-.384.7-.384 1.26V18h-1.872v-3.408c0-1.016-.408-1.524-1.224-1.524-.432 0-.776.144-1.032.432-.256.28-.384.7-.384 1.26V18h-1.872v-6.456h1.788v.744c.24-.272.532-.48.876-.624a3.014 3.014 0 011.152-.216c.456 0 .868.092 1.236.276.368.176.664.436.888.78a2.66 2.66 0 01.996-.78 3.202 3.202 0 011.332-.276zm11.312 3.348c0 .024-.012.192-.036.504h-4.884c.088.4.296.716.624.948.328.232.736.348 1.224.348.336 0 .632-.048.888-.144a2.23 2.23 0 00.732-.48l.996 1.08c-.608.696-1.496 1.044-2.664 1.044-.728 0-1.372-.14-1.932-.42a3.163 3.163 0 01-1.296-1.188 3.257 3.257 0 01-.456-1.716c0-.632.148-1.2.444-1.704a3.15 3.15 0 011.236-1.188 3.623 3.623 0 011.764-.432 3.6 3.6 0 011.716.408c.512.272.912.664 1.2 1.176.296.504.444 1.092.444 1.764zm-3.348-1.932c-.424 0-.78.12-1.068.36-.288.24-.464.568-.528.984h3.18c-.064-.408-.24-.732-.528-.972-.288-.248-.64-.372-1.056-.372zM61.464 32.008c1.579 0 2.741.315 3.488.944.757.63 1.136 1.472 1.136 2.528 0 .683-.17 1.307-.512 1.872-.341.555-.864 1.003-1.568 1.344-.693.33-1.552.496-2.576.496a9.1 9.1 0 01-2.336-.304c-.757-.213-1.403-.512-1.936-.896l1.024-1.984c.427.32.917.57 1.472.752a5.81 5.81 0 001.712.256c.65 0 1.163-.128 1.536-.384s.56-.613.56-1.072c0-.48-.197-.843-.592-1.088-.384-.245-1.056-.368-2.016-.368h-2.864l.576-6.304H65.4v2.08h-4.672l-.176 2.128h.912z" fill="#000"/><g clip-path="url(#clip0_1770_40097)"><path d="M88.629 31.008l-4.304-.657-1.93-4.11c-.144-.306-.647-.306-.791 0l-1.928 4.11-4.304.657a.437.437 0 00-.247.738l3.127 3.205-.74 4.53c-.058.36.326.63.644.454L82 37.81l3.844 2.126a.438.438 0 00.644-.454l-.74-4.53 3.127-3.205a.438.438 0 00-.246-.739z" fill="#FFC107"/></g><g clip-path="url(#clip1_1770_40097)"><path d="M108.23 31.008l-4.304-.657-1.929-4.11c-.144-.306-.647-.306-.791 0l-1.929 4.11-4.304.657a.437.437 0 00-.246.738l3.126 3.205-.739 4.53c-.059.36.326.63.643.454l3.845-2.125 3.844 2.126a.437.437 0 00.643-.454l-.739-4.53 3.127-3.205a.438.438 0 00-.247-.739z" fill="#FFC107"/></g><g clip-path="url(#clip2_1770_40097)"><path d="M127.828 31.008l-4.304-.657-1.929-4.11c-.144-.306-.648-.306-.792 0l-1.928 4.11-4.304.657a.437.437 0 00-.247.738l3.127 3.205-.739 4.53c-.059.36.325.63.643.454l3.844-2.125 3.844 2.126a.438.438 0 00.644-.454l-.739-4.53 3.126-3.205a.438.438 0 00-.246-.739z" fill="#FFC107"/></g><g clip-path="url(#clip3_1770_40097)"><path d="M147.429 31.008l-4.304-.657-1.929-4.11c-.144-.306-.647-.306-.791 0l-1.929 4.11-4.304.657a.437.437 0 00-.246.738l3.126 3.205-.739 4.53c-.059.36.326.63.644.454l3.844-2.125 3.844 2.126a.437.437 0 00.643-.454l-.739-4.53 3.127-3.205a.438.438 0 00-.247-.739z" fill="#FFC107"/></g><g clip-path="url(#clip4_1770_40097)"><path d="M167.027 31.008l-4.304-.657-1.929-4.11c-.144-.306-.647-.306-.792 0l-1.928 4.11-4.304.657a.437.437 0 00-.247.738l3.127 3.205-.739 4.53c-.059.36.325.63.643.454l3.845-2.125 3.844 2.126a.437.437 0 00.643-.454l-.739-4.53 3.127-3.205a.438.438 0 00-.247-.739z" fill="#FFC107"/></g><defs><clipPath id="clip0_1770_40097"><path fill="#fff" transform="translate(75 26)" d="M0 0h14v14H0z"/></clipPath><clipPath id="clip1_1770_40097"><path fill="#fff" transform="translate(94.602 26)" d="M0 0h14v14H0z"/></clipPath><clipPath id="clip2_1770_40097"><path fill="#fff" transform="translate(114.199 26)" d="M0 0h14v14H0z"/></clipPath><clipPath id="clip3_1770_40097"><path fill="#fff" transform="translate(133.801 26)" d="M0 0h14v14H0z"/></clipPath><clipPath id="clip4_1770_40097"><path fill="#fff" transform="translate(153.398 26)" d="M0 0h14v14H0z"/></clipPath><filter id="filter0_d_1770_40097" x="-4" y="-2" width="58" height="58" filterUnits="userSpaceOnUse" color-interpolation-filters="sRGB"><feFlood flood-opacity="0" result="BackgroundImageFix"/><feColorMatrix in="SourceAlpha" values="0 0 0 0 0 0 0 0 0 0 0 0 0 0 0 0 0 0 127 0" result="hardAlpha"/><feOffset dy="2"/><feGaussianBlur stdDeviation="2"/><feColorMatrix values="0 0 0 0 1 0 0 0 0 1 0 0 0 0 1 0 0 0 0.1 0"/><feBlend in2="BackgroundImageFix" result="effect1_dropShadow_1770_40097"/><feBlend in="SourceGraphic" in2="effect1_dropShadow_1770_40097" result="shape"/></filter></defs></svg>