<svg width="130" height="16" fill="none" xmlns="http://www.w3.org/2000/svg"><path d="M3.348 6.756c1.184 0 2.056.236 2.616.708.568.472.852 1.104.852 1.896 0 .512-.128.98-.384 1.404-.256.416-.648.752-1.176 1.008-.52.248-1.164.372-1.932.372a6.838 6.838 0 01-1.752-.228c-.568-.16-1.052-.384-1.452-.672l.768-1.488c.32.24.688.428 1.104.564.416.128.844.192 1.284.192.488 0 .872-.096 1.152-.288a.92.92 0 00.42-.804c0-.36-.148-.632-.444-.816-.288-.184-.792-.276-1.512-.276H.744L1.176 3.6H6.3v1.56H2.796l-.132 1.596h.684z" fill="#fff"/><g clip-path="url(#clip0_606_51850)"><path d="M21.407 6.089l-2.655-.406-1.19-2.534c-.089-.19-.4-.19-.488 0l-1.19 2.534-2.655.406a.27.27 0 00-.152.455l1.929 1.977-.456 2.795a.27.27 0 00.397.28l2.371-1.31 2.372 1.31a.27.27 0 00.396-.28l-.455-2.795 1.928-1.977a.27.27 0 00-.152-.455z" fill="#FFC107"/></g><g clip-path="url(#clip1_606_51850)"><path d="M33.498 6.089l-2.655-.406-1.19-2.534c-.089-.19-.4-.19-.488 0l-1.19 2.534-2.655.406a.27.27 0 00-.152.455l1.929 1.977-.456 2.795a.27.27 0 00.397.28l2.371-1.31 2.372 1.31a.27.27 0 00.396-.28l-.456-2.795 1.93-1.977a.27.27 0 00-.153-.455z" fill="#FFC107"/></g><g clip-path="url(#clip2_606_51850)"><path d="M45.589 6.089l-2.655-.406-1.19-2.534c-.089-.19-.4-.19-.488 0l-1.19 2.534-2.655.406a.27.27 0 00-.152.455l1.929 1.977-.456 2.795a.27.27 0 00.397.28l2.371-1.31 2.371 1.31a.27.27 0 00.397-.28l-.456-2.795 1.93-1.977a.27.27 0 00-.153-.455z" fill="#FFC107"/></g><g clip-path="url(#clip3_606_51850)"><path d="M57.68 6.089l-2.655-.406-1.19-2.534c-.089-.19-.4-.19-.489 0l-1.19 2.534-2.654.406a.27.27 0 00-.152.455l1.928 1.977-.455 2.795a.27.27 0 00.396.28l2.372-1.31 2.371 1.31a.27.27 0 00.397-.28l-.456-2.795 1.93-1.977a.27.27 0 00-.153-.455z" fill="#FFC107"/></g><g clip-path="url(#clip4_606_51850)"><path d="M69.77 6.089l-2.654-.406-1.19-2.534c-.09-.19-.4-.19-.489 0l-1.19 2.534-2.654.406a.27.27 0 00-.152.455l1.928 1.977-.456 2.795a.27.27 0 00.397.28l2.372-1.31 2.371 1.31a.27.27 0 00.397-.28l-.456-2.795 1.929-1.977a.27.27 0 00-.152-.455z" fill="#FFC107"/></g><path d="M119.235.412h1.763v11.342h-1.763V.412zM96.782 4.27c-2.221 0-4.03 1.623-4.03 3.858 0 2.221 1.809 3.858 4.03 3.858 2.22 0 4.03-1.637 4.03-3.858 0-2.238-1.81-3.858-4.03-3.858zm0 6.195c-1.216 0-2.264-.964-2.264-2.337 0-1.388 1.048-2.338 2.264-2.338 1.215 0 2.264.95 2.264 2.338 0 1.373-1.049 2.337-2.264 2.337zM86.323 5.45v1.638h4.073c-.121.92-.441 1.592-.928 2.06-.593.57-1.52 1.2-3.145 1.2-2.51 0-4.468-1.945-4.468-4.357 0-2.413 1.959-4.354 4.468-4.354 1.354 0 2.342.512 3.07 1.169l1.201-1.155C89.575.715 88.224 0 86.323 0 82.886 0 80 2.69 80 5.994s2.89 5.993 6.323 5.993c1.855 0 3.252-.584 4.346-1.681 1.127-1.083 1.475-2.6 1.475-3.83 0-.38-.032-.732-.092-1.023h-5.73v-.002zm39.509 5.016c-.896 0-1.535-.393-1.947-1.169l5.366-2.135-.181-.438c-.335-.861-1.354-2.457-3.437-2.457-2.068 0-3.785 1.565-3.785 3.858 0 2.164 1.703 3.859 3.984 3.859a4.03 4.03 0 003.344-1.71l-1.368-.877c-.455.645-1.077 1.069-1.976 1.069zm-.135-4.706c.699 0 1.293.335 1.489.82l-3.587 1.432c-.046-1.493 1.199-2.252 2.098-2.252zm-9.351-.63h-.06c-.395-.453-1.155-.86-2.115-.86-2.007 0-3.845 1.695-3.845 3.874 0 2.163 1.841 3.845 3.845 3.845.957 0 1.717-.41 2.115-.878h.06v.556c0 1.477-.821 2.266-2.143 2.266-1.08 0-1.748-.745-2.022-1.374l-1.535.615a3.82 3.82 0 003.557 2.28c2.068 0 3.817-1.17 3.817-4.02V4.503h-1.674v.629zm-2.022 5.335c-1.215 0-2.235-.98-2.235-2.323 0-1.36 1.02-2.355 2.235-2.355 1.201 0 2.143.995 2.143 2.355 0 1.346-.942 2.323-2.143 2.323zm-8.757-6.195c-2.22 0-4.029 1.623-4.029 3.858 0 2.221 1.809 3.858 4.029 3.858 2.221 0 4.03-1.637 4.03-3.858 0-2.238-1.809-3.858-4.03-3.858zm0 6.195c-1.215 0-2.264-.964-2.264-2.337 0-1.388 1.049-2.338 2.264-2.338 1.216 0 2.265.95 2.265 2.338.002 1.373-1.046 2.337-2.265 2.337z" fill="#fff"/><defs><clipPath id="clip0_606_51850"><path fill="#fff" transform="translate(13 3)" d="M0 0h8.636v8.636H0z"/></clipPath><clipPath id="clip1_606_51850"><path fill="#fff" transform="translate(25.09 3)" d="M0 0h8.636v8.636H0z"/></clipPath><clipPath id="clip2_606_51850"><path fill="#fff" transform="translate(37.182 3)" d="M0 0h8.636v8.636H0z"/></clipPath><clipPath id="clip3_606_51850"><path fill="#fff" transform="translate(49.273 3)" d="M0 0h8.636v8.636H0z"/></clipPath><clipPath id="clip4_606_51850"><path fill="#fff" transform="translate(61.364 3)" d="M0 0h8.636v8.636H0z"/></clipPath></defs></svg>