<svg width="25" height="22" fill="none" xmlns="http://www.w3.org/2000/svg"><path d="M12.498 6.21l-.002 5.433c0 .207.082.404.229.55l3.91 3.885 1.105-1.098-3.681-3.658.002-5.111h-1.563z" fill="#fff"/><path d="M14.063 0C8.563 0 4.012 4.06 3.25 9.318H0L3.906 13.2l3.906-3.882H4.83c.747-4.4 4.597-7.765 9.233-7.765 5.17 0 9.376 4.18 9.376 9.318s-4.206 9.318-9.375 9.318a9.347 9.347 0 01-7.393-3.587l-1.232.955a10.904 10.904 0 008.625 4.184c6.03 0 10.937-4.877 10.937-10.87C25 4.877 20.093 0 14.062 0z" fill="#fff"/></svg>