<svg width="62" height="60" fill="none" xmlns="http://www.w3.org/2000/svg"><path d="M13.482 24.832l30.354.229c.904 0 1.808.229 2.561.686.527-.076.98-.152 1.507-.152 5.498-.076 10.168 4.272 10.47 9.764l.978-1.068a4.764 4.764 0 00-.15-6.713L32.388 1.336a4.686 4.686 0 00-6.629.076l-14.687 15.41c-1.808 1.83-1.733 4.882.15 6.713l2.26 1.297zM25.985 6.37l2.034-2.06c.98-.992 2.636-.992 3.615 0l4.745 4.806c.98.992.98 2.67 0 3.662l-2.033 2.06c-.98.991-2.636.991-3.616 0l-4.745-4.807c-.979-.991-.979-2.67 0-3.661z" fill="#1D1D1B"/><path d="M5.197 57.718c-2.034 0-3.69-1.754-3.69-3.89V38.876h36.455v-2.213c0-1.144.15-2.136.527-3.127H1.582V32.39c0-2.136 1.657-3.89 3.69-3.89H42.03l.527-.534.678-.687s.075 0 .075-.076l.151-.153c.075-.076.15-.076.15-.076-.376-.076-.752-.229-1.204-.229H5.272C2.41 26.746 0 29.264 0 32.315v21.36c0 3.052 2.335 5.57 5.272 5.57H34.95c-.301-.535-.603-1.069-.829-1.68H5.197v.154z" fill="#1D1D1B"/><path d="M34.042 44.594h-29.6v4.577h29.6v-4.577z" fill="#1D1D1B"/><path d="M57.621 41.923v-5.264c0-5.34-4.067-9.764-9.189-9.764-3.992 0-7.381 2.746-8.662 6.56-.3.992-.527 2.06-.527 3.128v5.264c-2.033.61-3.54 2.44-3.54 4.73v8.391c0 2.746 2.184 4.959 4.896 4.959h15.667c2.711 0 4.896-2.213 4.896-4.959v-8.392c0-2.212-1.507-4.119-3.54-4.653zm-9.113-12.435c3.766 0 6.779 3.204 6.779 7.171v5.035H41.729V36.66c0-3.967 3.013-7.17 6.779-7.17zm1.506 22.886v1.831c0 .687-.527 1.22-1.205 1.22h-.603a1.197 1.197 0 01-1.205-1.22v-1.83c-.753-.611-1.28-1.603-1.28-2.823 0-1.831 1.28-3.357 2.787-3.357 1.581 0 2.787 1.526 2.787 3.357 0 1.22-.528 2.212-1.28 2.822z" fill="#24638E"/></svg>