<svg width="60" height="57" fill="none" xmlns="http://www.w3.org/2000/svg"><path d="M.813 30.558v17.366s10.733.342 12.623.958c1.89.615 15.73 7.452 16.81 7.247 1.08-.137 28.555-21.469 29.162-22.563.608-1.094 1.62-5.948-4.455-5.264 0 0-25.315 15.657-25.315 15.93 0 .274-13.367-3.487-13.367-3.487s-.877-2.324.54-2.324c1.35 0 10.464 3.965 12.422 3.76 1.957-.205 4.59-3.965 2.092-6.632l-15.458-7.794C15.529 27.618.812 30.558.812 30.558z" fill="#24638E"/><path d="M35.446 38.83l14.852-9.093s-.54-2.667-4.186-1.436l-11.678 7.11 1.012 3.42z" fill="#24638E"/><path d="M51.917 2.256v-.068C51.242.684 47.934 0 44.897 0h-.068c-2.97 0-6.278.684-6.953 2.188v.068a1.301 1.301 0 00-.136.547v5.128c-1.08-.205-2.227-.273-3.375-.273h-.135c-2.768 0-6.21.615-6.885 2.188v.068a1.301 1.301 0 00-.136.547v4.991c-.675-.205-1.35-.41-2.092-.41-3.646 0-6.683 3.008-6.683 6.769 0 3.76 2.902 6.632 6.548 6.632 1.957 0 3.645-.82 4.86-2.188.068 0 .135.068.203.068h.067c1.215.342 2.7.479 4.186.479 1.485 0 2.97-.205 4.185-.479.54-.136.945-.273 1.35-.478.203-.069.338-.205.473-.274l.202-.137c.54-.41.878-.888.878-1.435v-1.71c1.08.205 2.228.342 3.375.342 3.038 0 6.346-.683 7.02-2.188v-.068c.203-.205.203-.41.203-.547V2.735c0-.137 0-.342-.067-.479zm-1.013 16v1.572c0 .068-.067.205-.27.41-.81.616-2.903 1.23-5.805 1.23-1.215 0-2.363-.136-3.376-.341v-2.256c1.08.205 2.228.342 3.376.342 1.485 0 2.97-.206 4.185-.479.54-.137 1.013-.274 1.35-.479.203-.068.338-.205.473-.273v.273h.067zm-10.8-8.274l.337.342c0 .069-.068.205-.338.41-.337.274-.877.547-1.687.752-.608.137-1.553.342-2.768.41h-2.16c-.27 0-.473 0-.675-.068h-.406c-.202 0-.337-.068-.54-.068-.135 0-.202 0-.337-.068-.135 0-.27-.069-.405-.069-.068 0-.203-.068-.27-.068-.135 0-.203-.069-.27-.069-.068 0-.203-.068-.27-.068a6.41 6.41 0 01-1.62-.684l-.068-.068c-.067-.068-.135-.068-.135-.137l-.067-.068c-.068-.068-.068-.137-.068-.137 0-.068.068-.205.338-.342.742-.547 2.7-1.23 5.805-1.23 2.836-.069 4.793.615 5.603 1.23zm-1.08-7.589c.742-.547 2.7-1.23 5.805-1.23 3.105 0 5.063.683 5.805 1.23.203.137.27.274.27.342s-.067.205-.27.342c-.337.273-.877.478-1.687.752-.338.068-.743.205-1.283.273a8.323 8.323 0 01-1.418.137c-.202 0-.337 0-.54.068a7.536 7.536 0 01-1.755 0c-.202 0-.405 0-.607-.068-.136 0-.338 0-.473-.068-.135 0-.338-.069-.473-.069-.135 0-.27 0-.405-.068-.135 0-.27-.068-.405-.068s-.202-.069-.337-.069c-.068 0-.135-.068-.203-.068-.135 0-.27-.069-.337-.069-.743-.205-1.283-.478-1.62-.752l-.135-.136-.068-.069c-.067-.068-.067-.136-.067-.136-.068 0 0-.137.202-.274zm-4.726 17.572c1.485 0 2.97-.205 4.185-.479.54-.137.945-.273 1.35-.479.203-.068.338-.205.473-.273v1.914c0 .206-.54.684-1.958 1.163-.675.205-1.755.41-3.24.478h-1.755c-.608 0-1.148-.136-1.756-.205v-.273c0-.684-.135-1.368-.337-1.983 1.012 0 2.025.137 3.038.137zM39.226 8c.337.205.81.341 1.35.478 1.215.342 2.7.479 4.185.479 1.485 0 2.97-.205 4.186-.479.54-.137 1.012-.273 1.35-.478.202-.069.337-.206.54-.274v1.846c0 .205-.54.684-1.958 1.162-.675.206-1.755.41-3.24.479a7.532 7.532 0 01-1.755 0c-.878-.068-1.756-.137-2.498-.342v-.547c0-.205 0-.342-.068-.478v-.069c-.337-.752-1.282-1.299-2.565-1.64v-.48c.135.137.338.206.473.343zm-11.071 3.828c.135.069.202.137.337.206l.203.136c.337.205.81.342 1.35.479 1.215.342 2.7.479 4.185.479h.068c1.485 0 2.97-.206 4.185-.48.068 0 .135-.067.203-.067l.202-.069c.338-.137.675-.205.945-.342l.203-.136a.933.933 0 00.27-.206v1.915c0 .205-.54.684-1.958 1.162-.675.205-1.755.41-3.24.479h-1.755a25.158 25.158 0 01-3.173-.479c-1.418-.41-1.958-.889-1.958-1.162v-1.915h-.067zm.54 3.76c.337.206.81.343 1.35.48 1.215.341 2.7.478 4.185.478 1.553 0 2.97-.137 4.186-.479.54-.136 1.012-.273 1.35-.478.202-.069.337-.205.54-.274v1.915c0 .205-.54.683-1.958 1.162-.675.205-1.755.41-3.24.479h-1.755a16.868 16.868 0 01-2.566-.342 7.085 7.085 0 00-2.632-2.667v-.615c.202.137.337.274.54.342zm2.835 7.522c.945.137 1.89.273 2.768.273 1.485 0 2.97-.205 4.185-.478.54-.137 1.013-.274 1.35-.479.203-.068.338-.205.54-.273v1.914c0 .205-.607.752-1.957 1.162-.675.206-1.756.41-3.24.479H33.42a18.986 18.986 0 01-2.768-.342c.405-.752.675-1.504.878-2.256zm19.374-8.273v1.572c0 .206-.607.752-1.957 1.163-.675.205-1.756.41-3.24.478a7.543 7.543 0 01-1.756 0c-.877-.068-1.755-.137-2.498-.342v-2.256c1.08.205 2.228.342 3.376.342 1.485 0 2.97-.205 4.185-.479.54-.136 1.013-.273 1.35-.478.203-.069.338-.205.54-.274v.274zm0-3.419v1.573c0 .205-.54.683-1.957 1.162-.675.205-1.756.41-3.24.479a7.543 7.543 0 01-1.756 0c-.877-.069-1.688-.137-2.498-.342v-2.256c1.08.205 2.228.341 3.376.341 1.485 0 2.97-.205 4.185-.478.54-.137 1.013-.274 1.35-.479.203-.068.338-.205.473-.273v.273h.067zm0-6.837v1.572c0 .206-.54.684-1.957 1.163-.675.205-1.756.41-3.24.478a7.536 7.536 0 01-1.756 0c-1.485-.068-2.565-.273-3.24-.478-1.418-.41-1.958-.889-1.958-1.162V4.239c.068.068.203.137.27.205l.203.137c.405.205.81.342 1.35.479 1.215.341 2.7.478 4.185.478h.068a18.94 18.94 0 004.118-.478c.135 0 .202-.069.27-.069h.135c.067 0 .067 0 .135-.068.337-.069.607-.205.877-.342l.203-.137a.933.933 0 00.27-.205v.342h.067zM30.517 21.674c0 3.077-2.497 5.538-5.468 5.538-3.038 0-5.468-2.53-5.468-5.538 0-3.008 2.43-5.538 5.4-5.538a5.538 5.538 0 015.536 5.538z" fill="#1D1D1B"/><path d="M25.388 21.13c-.608-.274-.945-.41-.945-.821 0-.41.472-.479.675-.479.405 0 .675.137.877.41l.068.069.675-.889-.067-.068a1.827 1.827 0 00-1.08-.547v-.684h-1.148v.684c-.743.205-1.283.82-1.283 1.572 0 1.094.878 1.505 1.553 1.778.472.205.945.41.945.82 0 .48-.405.547-.608.547a1.51 1.51 0 01-1.147-.546l-.068-.137-.675.82v.069c.203.478.81.752 1.35.888v.684h1.148v-.752c.81-.205 1.282-.82 1.282-1.64-.067-1.095-.877-1.437-1.552-1.779z" fill="#1D1D1B"/></svg>