<svg width="80" height="51" fill="none" xmlns="http://www.w3.org/2000/svg"><path d="M50.204 0H6.514C4.36 0 2.535 1.847 2.535 4.03v13.94h1.99V4.03c0-1.091.912-2.015 1.99-2.015h43.772c1.078 0 1.99.924 1.99 2.015v29.892c0 1.092-.912 2.016-1.99 2.016h-12.6v2.015h12.517c2.156 0 3.98-1.848 3.98-4.03V4.03c0-2.183-1.741-4.03-3.98-4.03zm5.806 41.646c0 .084 0 .168.082.168H37.688v-1.931H56.34c-.166.504-.332 1.091-.332 1.763z" fill="#24638E"/><path d="M79.056 24.1v13.434c0 2.352-1.824 4.283-4.145 4.283h-9.866c.083-.084.083-.168.083-.168a4.24 4.24 0 00-.414-1.763H74.91c1.16 0 2.238-1.008 2.238-2.268V24.184c0-.588-.166-1.092-.58-1.512 0-.084-.083-.084-.083-.084l-7.71-7.892-4.477-4.534a2.251 2.251 0 00-1.575-.672H52.195V7.559h10.529c1.16 0 2.238.42 2.985 1.26l3.896 3.945 8.29 8.397.083.084c.746.756 1.078 1.763 1.078 2.855z" fill="#24638E"/><path d="M69.602 12.676h-9.368V24.01c0 2.771 2.156 4.954 4.892 4.954h14.01l-1.326-6.13-8.208-10.16zm7.545 14.274H65.29c-1.74 0-3.067-1.427-3.067-3.107v-9.152h6.55l8.373 8.48v3.78zM66.783 39.882c-.746-2.771-3.316-4.87-6.218-4.87-3.067 0-5.554 2.099-6.384 4.87a11.571 11.571 0 00-.165 1.763v.252c.083 3.526 2.984 6.381 6.549 6.381 3.482 0 6.3-2.855 6.466-6.381v-.252c0-.588-.083-1.26-.248-1.763zm-1.741 2.015c-.083 2.435-2.073 4.366-4.477 4.366-2.487 0-4.477-1.931-4.56-4.366-.083-.084-.083-.168-.083-.252 0-.588.166-1.26.415-1.763a4.546 4.546 0 014.228-2.855c1.824 0 3.482 1.175 4.145 2.855.249.504.415 1.175.415 1.763 0 .084 0 .168-.083.252z" fill="#24638E"/><path d="M65.128 41.65c0 .083 0 .167-.083.251-.083 2.435-2.073 4.366-4.477 4.366-2.487 0-4.476-1.93-4.56-4.366-.082-.084-.082-.168-.082-.252 0-.587.166-1.26.414-1.763a4.547 4.547 0 014.228-2.855c1.824 0 3.482 1.176 4.145 2.855.25.504.415 1.176.415 1.763zm13.008-6.638h-7.71v2.015h7.71v-2.015zM61.224 12.676h-4.228v2.015h4.228v-2.015z" fill="#24638E"/><path d="M33.29 20.734l.58-.588a1.892 1.892 0 000-2.687l-1.243-1.175a1.836 1.836 0 00-2.653 0l-.58.587c-1.907-1.343-3.98-2.35-6.218-2.938.248-.336.331-.672.331-1.092v-1.763c0-1.008-.829-1.848-1.824-1.848h-5.72c-.995 0-1.824.84-1.824 1.848v1.847c0 .42.083.756.332 1.091C6.512 15.865.543 23.337.543 31.817c0 .588 0 1.176.083 1.68l.083 1.007h3.98l-.167-1.175c0-.504-.083-1.008-.083-1.512 0-7.473 5.555-13.686 12.767-14.442h3.15c2.654.336 5.058 1.428 7.13 2.939l2.322 2.267c2.072 2.603 3.233 5.878 3.233 9.152 0 7.977-6.384 14.527-14.342 14.527H18.2l-1.492-.084v3.946l1.326.084c.25 0 .498.084.664.084 10.031 0 18.238-8.313 18.238-18.473.083-3.946-1.243-7.892-3.647-11.083z" fill="#F8AA24"/><path d="M25.999 27.026l-2.902-2.77-3.73 4.114a1.998 1.998 0 00-.995 0l-5.803-6.214-2.819 2.687 5.72 6.298c0 .168-.083.42-.083.671 0 1.932 1.576 3.443 3.4 3.443 1.906 0 3.399-1.595 3.399-3.443 0-.252 0-.503-.083-.755l3.896-4.03zM3.529 36.52c-1.078 0-1.99.923-1.99 2.015 0 1.091.912 2.015 1.99 2.015 1.077 0 1.99-.924 1.99-2.015 0-1.092-.913-2.015-1.99-2.015zm3.066 5.71c-1.078 0-1.99.924-1.99 2.016 0 1.091.912 2.015 1.99 2.015 1.078 0 1.99-.924 1.99-2.015 0-1.092-.912-2.016-1.99-2.016zm5.637 3.442c-1.078 0-1.99.924-1.99 2.015 0 1.092.912 2.015 1.99 2.015 1.078 0 1.99-.923 1.99-2.015 0-1.091-.912-2.015-1.99-2.015z" fill="#F8AA24"/></svg>