<svg width="122" height="98" fill="none" xmlns="http://www.w3.org/2000/svg"><path d="M10.649 21.935H3.992v30.293h6.657V21.935zm30.09-.005H14.51v6.06h9.72v24.234h6.656V27.989h9.853v-6.058zm9.449-.13L36.874 52.227h6.923l3.196-7.405h11.849l3.062 7.405h7.19L55.78 21.8h-5.592zm5.991 16.829h-6.657l3.329-7.674 3.328 7.674zM78.548 21.93h-6.79v30.294h20.237V46.03H78.548v-24.1zm29.695 0l-6.923 11.445-7.056-11.444H86.54l11.184 17.771v12.522h6.657V39.703l11.317-17.772h-7.456z" fill="#1D1D1B"/><path d="M40.208 68.132H0v12.251h40.208V68.132z" fill="#009500"/><path d="M80.41 68.132H40.204v12.251H80.41V68.132z" fill="#EDEDED"/><path d="M120.626 68.132H80.417v12.251h40.209V68.132z" fill="#ED362B"/><path d="M120.486 60.058H.26v2.289h120.226v-2.289z" fill="#1D1D1B"/><path d="M3.459.136h3.195l6.258 7.809 5.99-7.809h3.063v16.56h-3.062V4.714l-5.858 7.27h-.4l-5.991-7.27v11.982H3.459V.136zM33.547 0h2.796L44.2 16.695h-3.462l-1.864-4.309h-7.988l-1.864 4.309h-3.329L33.547 0zm-1.464 9.694h5.459L34.879 3.77l-2.796 5.924zM47.795.135h.4C49.26.135 51.923 0 53.255 0c7.455 0 10.384 3.77 10.384 8.213 0 4.712-3.595 8.482-10.651 8.482h-5.193V.135zm3.196 2.692v11.175h2.13c4.527 0 7.056-2.289 7.056-5.79 0-3.365-2.53-5.52-6.923-5.52-.799 0-1.464 0-2.263.135zM68.169.131H78.82v2.693h-7.322v4.173h6.656V9.69h-6.656v4.308h7.722v2.693H68.169V.131zm22.897 0h3.195v16.56h-3.195V.131zm22.763 16.56L103.578 5.113v11.443h-2.93V.131h2.53l10.119 11.579V.13h3.062v16.56h-2.53zM1.197 97.477v-8.751h2.53c2.529 0 3.328 1.346 3.328 2.827 0 1.48-1.065 2.827-3.196 2.827H2.794v3.231H1.197v-.134zm1.464-7.27v2.692h1.065c.932 0 1.598-.404 1.598-1.346 0-.943-.533-1.346-1.598-1.346H2.661zm6.519 7.265v-8.75h2.663c2.397 0 3.196 1.21 3.196 2.692-.134 1.48-1.066 2.289-1.731 2.558l2.663 3.635h-1.864l-2.397-3.366h-1.065v3.231H9.18zm1.465-7.27v2.558h.932c.932 0 1.73-.404 1.73-1.346 0-.673-.266-1.212-1.597-1.212h-1.065zm7.065-1.481h5.058v1.481h-3.461v2.154h3.062v1.481h-3.062v2.289h3.595v1.481h-5.193v-8.886zm7.58 0h1.597l2.93 4.04 2.795-4.04h1.465v8.751h-1.598v-6.328l-2.663 3.905h-.266l-2.796-3.905v6.328h-1.465v-8.75zm11.727 0h1.598v8.751h-1.598v-8.75zm11.572 5.116c0 2.693-1.598 3.77-3.462 3.77-2.13 0-3.728-1.346-3.728-3.904V88.72h1.465v4.712c0 1.616.665 2.693 2.13 2.693 1.331 0 1.997-.942 1.997-2.693V88.72h1.465v5.116h.133zm2.666-5.116h1.597l2.93 4.04 2.795-4.04h1.465v8.751h-1.598v-6.328l-2.663 3.905h-.266l-2.796-3.905v6.328h-1.464v-8.75zm18.374-.131c2.53 0 4.526 1.75 4.526 4.577 0 1.212-.399 2.289-1.198 3.097l1.065 1.212h-1.73l-.4-.404c-.532.403-1.331.538-2.263.538-2.53 0-4.527-1.75-4.527-4.577.133-2.424 1.864-4.443 4.527-4.443zm0 7.674c.532 0 .932-.135 1.331-.27l-.666-.942.932-.942.8.942c.399-.538.532-1.212.532-2.02 0-1.884-1.332-3.096-2.93-3.096-1.597 0-2.928 1.212-2.928 3.097.133 1.885 1.331 3.23 2.929 3.23zm13.714-2.427c0 2.693-1.598 3.77-3.462 3.77-2.13 0-3.728-1.346-3.728-3.904V88.72h1.465v4.712c0 1.616.665 2.693 2.13 2.693 1.331 0 1.997-.942 1.997-2.693V88.72h1.465v5.116h.133zm5.327-5.116h1.331l3.728 8.751H92l-.8-2.154h-3.727l-.932 2.154h-1.598l3.728-8.75zm-.666 5.116h2.53l-1.198-3.096-1.332 3.096zm7.326-5.116h1.465v7.27h3.861v1.481h-5.325v-8.75zm7.451 0h1.465v8.751h-1.465v-8.75zm3.329 0h7.189v1.481h-2.796v7.27h-1.597v-7.27h-2.796v-1.48zm12.383 5.116v3.635h-1.598v-3.635l-3.062-5.116h1.731l2.13 3.635 2.13-3.635h1.598l-2.929 5.116z" fill="#000"/></svg>