<svg width="67" height="62" fill="none" xmlns="http://www.w3.org/2000/svg"><path d="M10.863 36.54v6.967L9.81 41.374l-1.263 1.138v-7.465l2.316 1.493zm16.492-12.797l-14.39 8.958-2.527-1.066 14.881-9.03 2.036 1.138zM20.48 61.996L39.575 50.69V29.078L20.48 38.89v23.107zm1.896-21.898l15.303-7.892v17.348l-15.303 9.1V40.098z" fill="#1D1D1B"/><path d="M39.011 28.302L19.496 17.566.684 28.302l19.163 9.954 19.164-9.954zm-19.164 7.82l-5.194-2.701 14.25-8.46 5.966 3.27-15.022 7.892zm6.248-12.726l.842.498-14.32 8.532-1.755-.925 14.53-8.389.703.284zM19.496 19.7l4.072 2.204-14.601 8.46-4.282-2.203 14.811-8.46zM6.65 32.135L.754 29.148v21.543l19.093 11.304V38.96L7.984 32.846l-1.334-.711zm6.107 5.26l5.195 2.702v18.557l-15.303-9.1V32.276l4.001 2.062v11.375l2.598-2.133 3.51 6.114v-12.3zm-4.211-2.061l2.316 1.208v5.901l-.983-1.777-1.263.995v-6.327h-.07zm18.88 8.813c.632-.355 3.65-1.99 6.177-3.341v-2.204c-2.948 1.564-4.984 2.701-6.177 3.341v2.204zm0 3.777c.632-.355 3.65-1.99 6.177-3.341v-2.204c-2.948 1.564-4.984 2.702-6.177 3.341v2.204zm0 3.762c.632-.355 3.65-1.99 6.177-3.341V46.14c-2.948 1.564-4.984 2.701-6.177 3.341v2.204z" fill="#1D1D1B"/><path d="M63.51 15.072c-3.3-4.265-8.634-6.825-14.39-6.896h-7.09V0L22.234 14.86 42.03 27.442v-8.531l6.739.213c4.703.142 8.844 3.342 10.038 7.75.07.284.14.497.14.497C59.93 37.54 45.54 44.72 45.4 44.791l-5.475 2.702 6.037-.854c12.705-1.848 20.146-9.242 20.918-20.76.21-3.981-.912-7.536-3.37-10.807zM51.155 43.37c4.493-3.342 10.32-9.03 9.617-16.281 0 0 0-.285-.14-.711-1.474-5.261-6.318-9.03-11.793-9.172l-8.704-.213v7.039l-14.531-9.314L40.134 3.84v6.257l8.986.07c5.194.072 10.038 2.347 12.916 6.115 2.176 2.844 3.159 5.972 2.948 9.314-.702 8.958-5.405 14.93-13.829 17.774z" fill="#24638E"/><path d="M64.912 25.659c-.632 8.887-5.335 14.93-13.759 17.703 4.493-3.342 10.319-9.03 9.617-16.281 0 0 0-.285-.14-.711-1.475-5.262-6.318-9.03-11.794-9.172l-8.704-.213v7.038l-14.53-9.313 14.53-10.878v6.256l8.985.072c5.195.07 10.039 2.346 12.916 6.114 2.106 2.844 3.09 5.972 2.879 9.385z" fill="#24638E"/></svg>