<svg width="122" height="97" fill="none" xmlns="http://www.w3.org/2000/svg"><path d="M40.985 66.969H.422v12.298h40.563V66.97z" fill="#ED362B"/><path d="M81.543 66.969H40.98v12.298h40.563V66.97z" fill="#FFBE00"/><path d="M121.983 66.969H81.42v12.298h40.563V66.97z" fill="#ED362B"/><path d="M14.475 34.626c-3.05-1.337-4.905-2.407-4.905-4.545 0-1.604 1.193-2.54 3.181-2.54 2.121 0 3.314.802 4.507 2.005l.663.668 3.58-5.213-.398-.535c-1.989-2.139-5.17-3.475-8.75-3.475-5.567 0-9.544 3.876-9.544 9.09 0 6.015 4.507 8.154 8.087 9.892 2.916 1.47 4.772 2.406 4.772 4.411 0 2.005-1.724 2.807-3.447 2.807s-4.242-.802-5.965-3.074l-.53-.669-3.712 4.679.265.401c1.458 3.476 6.098 5.347 9.942 5.347 5.965 0 10.207-3.877 10.207-9.357 0-6.15-4.507-8.288-7.953-9.892zm21.081-13.243h-8.882v31.815h6.496V42.504c1.06.134 2.253.134 2.916.134 7.689 0 11.135-5.481 11.135-10.56 0-3.343-1.06-10.695-11.665-10.695zM40.46 31.81c0 3.743-3.182 4.144-4.507 4.144-.796 0-1.724 0-2.784-.134v-7.887h2.784c4.109 0 4.507 2.273 4.507 3.877zm17.1-10.427L44.965 53.332h6.628l2.916-7.753h11.136l2.916 7.753h6.893l-12.46-31.949h-5.436zm5.567 17.645h-6.098l3.049-7.886 3.049 7.886zm22.536-17.514h-6.495v31.815h6.495V21.514zm25.447-.131v19.65l-14.581-19.65h-5.037v31.949h6.097V33.815l14.582 19.517h5.037V21.383h-6.098z" fill="#000"/><path d="M121.982 58.014H.822v2.272h121.16v-2.272z" fill="#1D1D1B"/><path d="M4.267.13H7.58l6.362 7.754L20.041.13h3.049v16.71h-3.181V4.808l-5.966 7.353h-.397L7.58 4.809V16.84H4.267V.13zM34.628 0h2.916l7.954 16.71h-3.58l-1.988-4.278h-7.953l-1.989 4.277h-3.314L34.628 0zM33.17 9.758h5.435l-2.651-5.881-2.784 5.881zM48.94.134h.398c1.06 0 3.712-.134 5.17-.134C61.931 0 64.98 3.877 64.98 8.288c0 4.679-3.579 8.555-10.737 8.555H48.94V.133zm3.315 2.673v11.229h2.12c4.508 0 7.159-2.272 7.159-5.748 0-3.342-2.651-5.48-7.026-5.48-.928-.134-1.458 0-2.254 0zM69.485.13h10.737v2.808H72.8v4.144h6.76v2.673H72.8v4.278h7.82v2.673H69.486V.131zm23.068 0h3.314v16.71h-3.314V.13zm22.927 16.576L105.273 5.21v11.496h-3.049V.131h2.651l10.207 11.63V.13h3.049v16.71h-2.651v-.135zM2.014 96.106v-8.688h2.519c2.518 0 3.314 1.336 3.314 2.807 0 1.47-1.06 2.807-3.182 2.807h-1.06v3.208H2.014v-.133zm1.59-7.218v2.673h1.061c.928 0 1.59-.4 1.59-1.336s-.53-1.337-1.59-1.337h-1.06zm6.359 7.213v-8.689h2.651c2.386 0 3.181 1.203 3.181 2.674 0 1.47-.928 2.272-1.723 2.54l2.651 3.609h-1.855l-2.387-3.342h-1.06v3.208H9.963zm1.458-7.218v2.54h.928c.928 0 1.59-.401 1.59-1.337 0-.668-.397-1.203-1.59-1.203h-.928zm7.033-1.471h5.037v1.47h-3.446v2.14h3.049v1.47h-3.05v2.273h3.58v1.47h-5.17v-8.823zm7.548 0h1.59l2.917 4.01 2.784-4.01h1.458v8.69h-1.59v-6.284l-2.652 3.877h-.265l-2.784-3.743v6.283h-1.458v-8.823zm11.676 0h1.458v8.69h-1.458v-8.69zm11.522 5.08c0 2.674-1.591 3.743-3.447 3.743-2.121 0-3.712-1.337-3.712-3.877v-4.946H43.5v4.679c0 1.604.663 2.674 2.121 2.674 1.326 0 1.989-.936 1.989-2.674v-4.679h1.458v5.08h.133zm2.653-5.08h1.591l2.916 4.01 2.784-4.01h1.458v8.69h-1.59v-6.284l-2.651 3.877h-.266l-2.783-3.743v6.283h-1.459v-8.823zm18.424-.13c2.518 0 4.507 1.737 4.507 4.545 0 1.203-.398 2.272-1.193 3.074l1.06 1.203h-1.856l-.265-.4c-.662.4-1.458.534-2.253.534-2.519 0-4.507-1.738-4.507-4.545 0-2.406 1.723-4.411 4.507-4.411zm0 7.62c.53 0 .928-.134 1.325-.268l-.795-.936.928-.935.795.935c.398-.534.53-1.203.53-2.005 0-1.871-1.325-3.075-2.916-3.075-1.59 0-2.916 1.204-2.916 3.075.133 1.871 1.326 3.208 3.049 3.208zm13.525-2.41c0 2.674-1.59 3.743-3.447 3.743-2.12 0-3.711-1.337-3.711-3.877v-4.946h1.458v4.679c0 1.604.662 2.674 2.12 2.674 1.326 0 1.99-.936 1.99-2.674v-4.679h1.457v5.08h.133zm5.304-5.08h1.326l3.711 8.69H92.42l-.795-2.14h-3.712l-.928 2.14h-1.59l3.711-8.69zm-.663 5.08h2.519l-1.193-3.075-1.326 3.075zm7.294-5.08h1.459v7.219h3.976v1.47h-5.435v-8.689zm7.418 0h1.459v8.69h-1.459v-8.69zm3.314 0h7.159v1.47h-2.784v7.22h-1.591v-7.22h-2.784v-1.47zm12.329 5.08v3.61h-1.59v-3.61l-3.049-5.08h1.723l2.121 3.61 2.121-3.61h1.591l-2.917 5.08z" fill="#000"/></svg>