<svg width="81" height="62" fill="none" xmlns="http://www.w3.org/2000/svg"><path d="M70.266 4.591c-2.517 1.975-5.36 5.183-6.254 9.954-.974 5.43-2.68 9.214-5.117 11.682-2.518 2.55-7.066 3.373-10.64 1.892-.325-.082-.569-.247-.812-.411-2.762-1.481-4.711-4.772-5.686-8.885-.569-2.468.081-6.581 3.493-9.954 2.274-2.139 6.904-5.1 15.513-5.1 2.762-.165 5.93.164 9.503.822zM33.8 32.727c0 2.304-.568 4.278-1.705 5.594-.082.165-.244.33-.406.494-2.031 1.892-5.28 2.55-7.636 1.563-2.274-.987-4.467-3.209-6.579-6.828-1.705-2.797-4.304-4.36-6.497-5.183 9.259-5.594 15.026-4.607 17.788-3.455 3.167 1.399 4.63 4.031 4.954 5.84.081.577.081 1.317.081 1.975z" fill="#78E5B4"/><path d="M75.467 2.042C55.81-2.977 46.55 2.37 42.815 6.155c-4.549 4.36-5.28 9.79-4.549 13.41.975 4.524 3.33 8.226 6.336 10.365-.813 4.36-1.3 9.296-1.625 14.067-2.355-5.594-5.198-8.062-5.767-8.556.325-1.645.406-3.455.081-5.265-.487-2.797-2.517-6.58-7.147-8.555-4.549-1.975-12.671-2.55-24.855 6.087L.984 30.835l5.361.164c.081 0 5.605.247 8.041 4.442 2.518 4.196 5.199 6.91 8.285 8.227 1.219.576 2.518.74 3.899.74 2.761 0 5.604-1.07 7.554-3.044l.812-.822c.325-.412.65-.905.893-1.399 1.95 2.14 6.417 8.391 6.742 21.06v1.316h3.574v-1.233c0-4.114.081-18.346 1.868-28.629 1.38.494 2.762.74 4.224.74 3.492 0 6.904-1.233 9.34-3.62 3.006-3.043 4.955-7.485 6.092-13.738 1.219-6.58 8.041-9.542 8.123-9.625l4.954-2.138-5.28-1.234zm-43.78 36.69c-2.03 1.892-5.28 2.55-7.635 1.563-2.274-.987-4.467-3.208-6.58-6.828-1.705-2.797-4.304-4.36-6.497-5.183C20.235 22.69 26 23.677 28.763 24.83c3.168 1.399 4.63 4.031 4.955 5.841.08.658.08 1.316.08 1.974 0 .165-.08.247-.08.412-3.9-3.95-10.722-4.69-11.128-4.69l-.325 3.62c.081 0 8.447.987 10.072 5.677-.163.164-.163.41-.325.575a.556.556 0 01-.325.494zm32.327-24.268c-.975 5.43-2.68 9.213-5.117 11.681-2.518 2.55-7.066 3.373-10.64 1.893-.244-.083-.488-.247-.731-.33 0-.987.568-9.049 7.066-11.681l-1.3-3.456c-6.254 2.469-8.284 8.392-8.934 12.011-1.137-1.645-2.03-3.62-2.6-5.923-.568-2.468.082-6.581 3.493-9.954 2.275-2.139 6.904-5.1 15.514-5.1 2.762 0 5.848.329 9.422.987-2.437 1.974-5.36 5.183-6.173 9.872z" fill="#1D1D1B"/></svg>