<svg width="37" height="36" fill="none" xmlns="http://www.w3.org/2000/svg"><g clip-path="url(#clip0_1918_39534)" fill="#fff"><path d="M21.902 18a3.445 3.445 0 11-6.89 0 3.445 3.445 0 016.89 0z"/><path d="M26.515 11.905a3.201 3.201 0 00-.773-1.188 3.2 3.2 0 00-1.188-.774c-.364-.141-.911-.31-1.92-.355-1.09-.05-1.416-.06-4.176-.06-2.76 0-3.087.01-4.177.06-1.007.046-1.555.214-1.919.355-.449.166-.855.43-1.188.774a3.206 3.206 0 00-.774 1.188c-.141.364-.31.912-.355 1.92-.05 1.09-.06 1.416-.06 4.176 0 2.76.01 3.087.06 4.177.046 1.008.214 1.555.355 1.919.166.449.43.855.774 1.188a3.18 3.18 0 001.188.773c.364.142.912.31 1.92.356 1.09.05 1.416.06 4.176.06 2.76 0 3.087-.01 4.177-.06 1.007-.045 1.555-.214 1.919-.356a3.423 3.423 0 001.962-1.961c.14-.364.31-.912.356-1.92.05-1.09.06-1.416.06-4.176 0-2.76-.01-3.087-.06-4.177-.046-1.007-.215-1.555-.357-1.919zm-8.057 11.403a5.307 5.307 0 110-10.615 5.307 5.307 0 010 10.615zm5.518-9.584a1.24 1.24 0 110-2.481 1.24 1.24 0 010 2.48z"/><path d="M18.457 0c-9.94 0-18 8.06-18 18s8.06 18 18 18 18-8.06 18-18-8.06-18-18-18zm10.274 22.261c-.05 1.1-.225 1.852-.48 2.51a5.285 5.285 0 01-3.024 3.022c-.657.256-1.408.43-2.508.48-1.103.05-1.455.063-4.262.063-2.807 0-3.159-.012-4.261-.062-1.1-.05-1.852-.225-2.509-.48a5.063 5.063 0 01-1.83-1.193 5.066 5.066 0 01-1.193-1.83c-.255-.658-.43-1.41-.48-2.51C8.133 21.16 8.12 20.808 8.12 18c0-2.807.012-3.16.062-4.261.05-1.1.225-1.852.48-2.51a5.073 5.073 0 011.193-1.83 5.062 5.062 0 011.83-1.192c.658-.256 1.41-.43 2.51-.48 1.102-.05 1.454-.063 4.261-.063 2.807 0 3.16.012 4.261.063 1.1.05 1.852.224 2.51.48a5.07 5.07 0 011.83 1.192 5.057 5.057 0 011.192 1.83c.256.658.43 1.41.48 2.51.051 1.102.063 1.454.063 4.261 0 2.807-.012 3.16-.062 4.261z"/></g><defs><clipPath id="clip0_1918_39534"><path fill="#fff" transform="translate(.457)" d="M0 0h36v36H0z"/></clipPath></defs></svg>