<svg width="37" height="37" fill="none" xmlns="http://www.w3.org/2000/svg"><path d="M22.043 18.502a3.541 3.541 0 11-7.082 0 3.541 3.541 0 017.082 0z" fill="#003153"/><path d="M26.78 12.233a3.291 3.291 0 00-.795-1.222 3.289 3.289 0 00-1.222-.794c-.374-.146-.936-.319-1.972-.366-1.12-.05-1.456-.062-4.293-.062s-3.172.01-4.293.062c-1.035.047-1.598.22-1.972.366a3.28 3.28 0 00-1.221.794c-.353.343-.625.76-.795 1.222-.146.374-.319.937-.366 1.973-.05 1.12-.062 1.456-.062 4.292 0 2.837.011 3.172.062 4.293.047 1.036.22 1.598.366 1.972.17.462.441.879.794 1.222.343.353.76.624 1.222.794.374.146.937.32 1.973.366 1.12.051 1.455.062 4.292.062 2.837 0 3.173-.01 4.293-.062 1.035-.047 1.598-.22 1.972-.366a3.518 3.518 0 002.016-2.016c.146-.374.319-.936.366-1.972.051-1.12.062-1.456.062-4.293s-.01-3.172-.062-4.293c-.047-1.035-.22-1.598-.366-1.972zm-8.282 11.72a5.455 5.455 0 110-10.91 5.455 5.455 0 010 10.91zm5.67-9.85a1.275 1.275 0 110-2.55 1.275 1.275 0 010 2.55z" fill="#003153"/><path d="M18.5 0C8.284 0 0 8.284 0 18.5S8.284 37 18.5 37 37 28.716 37 18.5 28.716 0 18.5 0zm10.559 22.88c-.051 1.13-.231 1.903-.494 2.578a5.431 5.431 0 01-3.107 3.107c-.675.263-1.447.442-2.578.494-1.133.052-1.495.064-4.38.064s-3.247-.012-4.38-.064c-1.13-.052-1.903-.231-2.578-.494A5.204 5.204 0 019.66 27.34a5.206 5.206 0 01-1.225-1.882c-.262-.675-.442-1.447-.494-2.578-.052-1.133-.064-1.495-.064-4.38s.012-3.247.064-4.38c.051-1.13.23-1.903.493-2.578A5.204 5.204 0 019.66 9.66a5.204 5.204 0 011.882-1.225c.675-.263 1.447-.442 2.578-.494 1.133-.052 1.495-.064 4.38-.064s3.247.012 4.38.064c1.13.052 1.903.231 2.578.493A5.208 5.208 0 0127.34 9.66c.54.53.959 1.173 1.225 1.882.263.675.443 1.447.494 2.578.052 1.133.064 1.495.064 4.38s-.012 3.247-.064 4.38z" fill="#003153"/></svg>