<svg width="37" height="37" fill="none" xmlns="http://www.w3.org/2000/svg"><g clip-path="url(#clip0_1928_39616)"><path d="M18.5 37C28.717 37 37 28.716 37 18.5S28.716 0 18.5 0 0 8.283 0 18.5 8.283 37 18.5 37z" fill="#fff"/><path d="M19.992 24.773c-1.398-.108-1.986-.802-3.083-1.468-.603 3.163-1.34 6.195-3.521 7.779-.675-4.78.988-8.371 1.76-12.182-1.316-2.216.159-6.677 2.936-5.578 3.417 1.352-2.96 8.24 1.321 9.1 4.469.899 6.293-7.753 3.522-10.568-4.004-4.063-11.655-.092-10.714 5.725.229 1.422 1.698 1.853.587 3.815-2.563-.567-3.328-2.588-3.23-5.283.16-4.41 3.964-7.499 7.78-7.926 4.826-.54 9.356 1.772 9.981 6.312.704 5.123-2.178 10.672-7.339 10.274z" fill="#003153"/></g><defs><clipPath id="clip0_1928_39616"><path fill="#fff" d="M0 0h37v37H0z"/></clipPath></defs></svg>