<svg width="24" height="24" fill="none" xmlns="http://www.w3.org/2000/svg"><mask id="path-1-outside-1_1770_41439" maskUnits="userSpaceOnUse" x="0" y="0" width="24" height="24" fill="#000"><path fill="#fff" d="M0 0h24v24H0z"/><path fill-rule="evenodd" clip-rule="evenodd" d="M1 9.716c0 4.809 3.934 8.72 8.77 8.72 2.242 0 4.29-.841 5.841-2.222l6.273 6.235 1.001-.995-6.298-6.259a8.647 8.647 0 001.953-5.479C18.54 4.91 14.605 1 9.77 1 4.934 1 1 4.908 1 9.716zm1.415 0c0-4.03 3.3-7.31 7.355-7.31 4.057 0 7.355 3.28 7.355 7.31 0 4.03-3.3 7.31-7.355 7.31-4.055 0-7.355-3.28-7.355-7.31z"/></mask><path fill-rule="evenodd" clip-rule="evenodd" d="M1 9.716c0 4.809 3.934 8.72 8.77 8.72 2.242 0 4.29-.841 5.841-2.222l6.273 6.235 1.001-.995-6.298-6.259a8.647 8.647 0 001.953-5.479C18.54 4.91 14.605 1 9.77 1 4.934 1 1 4.908 1 9.716zm1.415 0c0-4.03 3.3-7.31 7.355-7.31 4.057 0 7.355 3.28 7.355 7.31 0 4.03-3.3 7.31-7.355 7.31-4.055 0-7.355-3.28-7.355-7.31z" fill="#fff"/><path d="M15.611 16.214l.494-.496-.467-.464-.492.437.465.523zm6.273 6.235l-.493.496.493.49.494-.49-.494-.496zm1.001-.995l.493.497.5-.497-.5-.496-.493.496zm-6.298-6.259l-.542-.442-.4.492.45.447.492-.497zm-6.817 2.54c-4.453 0-8.07-3.6-8.07-8.019H.3c0 5.2 4.252 9.42 9.47 9.42v-1.4zm5.376-2.044a8.063 8.063 0 01-5.376 2.044v1.4c2.42 0 4.632-.908 6.307-2.398l-.93-1.046zm-.028 1.02l6.273 6.234.987-.993-6.273-6.234-.987.993zm7.26 6.234l1-.994-.986-.993-1.001.994.987.993zm1-1.987l-6.297-6.26-.987.994 6.297 6.259.988-.993zM17.84 9.716a7.947 7.947 0 01-1.795 5.037l1.085.884a9.347 9.347 0 002.11-5.92h-1.4zM9.77 1.7c4.453 0 8.07 3.601 8.07 8.016h1.4C19.24 4.52 14.988.3 9.77.3v1.4zM1.7 9.716C1.7 5.3 5.317 1.7 9.77 1.7V.3C4.552.3.3 4.517.3 9.716h1.4zm8.07-8.01c-4.437 0-8.055 3.59-8.055 8.01h1.4c0-3.639 2.983-6.61 6.655-6.61v-1.4zm8.055 8.01c0-4.42-3.615-8.01-8.055-8.01v1.4c3.674 0 6.655 2.97 6.655 6.61h1.4zm-8.055 8.01c4.437 0 8.055-3.589 8.055-8.01h-1.4c0 3.64-2.983 6.61-6.655 6.61v1.4zm-8.055-8.01c0 4.421 3.618 8.01 8.055 8.01v-1.4c-3.672 0-6.655-2.97-6.655-6.61h-1.4z" fill="#fff" mask="url(#path-1-outside-1_1770_41439)"/></svg>