<svg width="22" height="22" fill="none" xmlns="http://www.w3.org/2000/svg"><path d="M18.03 13.128a10.458 10.458 0 00-4.066-2.53 5.659 5.659 0 002.305-4.556A5.67 5.67 0 0010.606.38a5.67 5.67 0 00-5.664 5.663A5.66 5.66 0 007.246 10.6a10.457 10.457 0 00-4.065 2.529 10.432 10.432 0 00-3.076 7.424c0 .457.37.827.827.827H20.28c.456 0 .826-.37.826-.827a10.43 10.43 0 00-3.075-7.424zM6.595 6.042a4.015 4.015 0 014.01-4.01 4.015 4.015 0 014.01 4.01 4.015 4.015 0 01-4.01 4.01 4.014 4.014 0 01-4.01-4.01zM1.797 19.726c.418-4.492 4.21-8.02 8.808-8.02 4.6 0 8.39 3.528 8.809 8.02H1.797z" fill="#000"/></svg>