<svg width="20" height="20" fill="none" xmlns="http://www.w3.org/2000/svg"><path d="M17.071 12.142A9.96 9.96 0 0013.2 9.733a5.39 5.39 0 002.195-4.34A5.4 5.4 0 0010 0a5.4 5.4 0 00-5.394 5.394 5.39 5.39 0 002.195 4.34 9.96 9.96 0 00-3.872 2.408A9.935 9.935 0 000 19.212c0 .436.352.788.787.788h18.426a.787.787 0 00.787-.787 9.935 9.935 0 00-2.929-7.071zM6.181 5.394A3.823 3.823 0 0110 1.574a3.823 3.823 0 013.82 3.82A3.823 3.823 0 0110 9.213a3.823 3.823 0 01-3.82-3.82zM1.61 18.425c.4-4.278 4.01-7.638 8.39-7.638 4.38 0 7.99 3.36 8.389 7.638H1.61z" fill="#fff"/></svg>